<?xml version="1.0" encoding="UTF-8"?>
<svg id="Calque_2" data-name="Calque 2" xmlns="http://www.w3.org/2000/svg" viewBox="0 0 26.92 24">
  <g id="Calque_1-2" data-name="Calque 1-2">
    <path d="m25.91,21.89H2.58l3.1-5.36h16.13s.03,0,.04,0c0,0,.02,0,.03,0,0,0,.02,0,.03,0,.04,0,.08-.01.11-.03,0,0,.02,0,.03,0,.02,0,.04-.01.06-.02,0,0,.02,0,.03-.01,0,0,.02,0,.03-.01.01,0,.02-.01.04-.02,0,0,0,0,0,0s0,0,0,0,0,0,0,0c.07-.04.13-.09.18-.14l.03-.03h0s.02-.03.03-.04c.02-.02.04-.05.06-.07,0,0,.01-.02.02-.04,0-.02.02-.04.03-.05s.02-.04.03-.06c0,0,0-.02.01-.03,0-.03.02-.06.03-.08,0-.02,0-.04.01-.06,0,0,0-.02,0-.03s0-.02,0-.03,0-.02,0-.03,0-.02,0-.03h0s0-.03,0-.04v-.05h0v-.05s0-.03,0-.04h0s0-.03,0-.04c0-.02,0-.04,0-.06,0-.01,0-.03,0-.04h0s0-.03,0-.05c0,0,0-.02,0-.03s0-.01,0-.02,0-.02,0-.03c0,0,0-.02-.01-.03,0,0,0-.02-.01-.03,0-.02-.02-.04-.03-.06v-.02s-4.14-7.16-4.14-7.16v-.03s-.05-.06-.07-.08c0,0-.01-.02-.02-.03-.02-.03-.04-.05-.06-.07,0,0-.02-.02-.03-.03,0,0-.02-.02-.03-.03-.03-.02-.05-.04-.08-.06,0,0,0,0,0,0-.03-.02-.06-.04-.09-.06,0,0,0,0,0,0,0,0-.02,0-.03-.01-.01,0-.03-.01-.05-.02,0,0-.02,0-.03,0,0,0-.02,0-.03,0h0s-.02,0-.03,0c0,0-.02,0-.03,0-.02,0-.04,0-.06,0,0,0-.02,0-.03,0s-.02,0-.03,0c-.01,0-.03,0-.04,0h-6.77l.21-.36.14-.24,2.24-3.88,1.76,2.88c.17.28.47.44.78.44.17,0,.33-.05.48-.14.43-.27.57-.83.3-1.26L14.25.76h0s-.01-.03-.01-.03c0,0,0,0,0-.02,0,0-.01-.02-.02-.03,0,0,0,0,0,0,0-.01-.02-.03-.03-.05-.01-.01-.03-.03-.04-.05s-.03-.03-.04-.04c-.01-.01-.03-.02-.04-.04,0,0-.02-.02-.04-.03,0,0,0,0-.02-.01,0,0-.02-.01-.03-.02s-.02,0-.03-.02c0,0-.02,0-.03-.01s-.02,0-.03-.01-.02-.01-.03-.02c0,0-.01,0-.02,0t0,0s-.02,0-.04-.01t0,0s-.03-.01-.05-.02c-.02,0-.04,0-.06-.01-.02,0-.04,0-.05-.01h0s-.03,0-.05,0c-.02,0-.04,0-.06,0h-.14s-.02,0-.03,0-.02,0-.03,0-.01,0-.02,0c0,0,0,0-.01,0-.02,0-.03,0-.05,0,0,0-.02,0-.03,0s-.02,0-.03,0c-.02,0-.03,0-.05.02-.01,0-.03.01-.05.02t0,0s-.03.01-.04.02c-.02,0-.03.02-.05.03-.02,0-.04.02-.05.03-.02.01-.03.02-.05.04-.01,0-.03.02-.04.04-.02.02-.04.03-.05.05,0,0-.02.02-.03.04,0,0-.02.02-.02.03t0,0s-.02.03-.03.05c0,.02-.02.03-.03.05h0s0,.02,0,.02l-3.13,5.43s0,0,0,.01l-1,1.73s-.03.06-.04.08c0,0,0,.02-.01.04-.01.04-.03.07-.04.11,0,.02,0,.04-.01.06,0,0,0,.01,0,.02s0,.01,0,.02c0,.01,0,.03,0,.05,0,.09,0,.18.01.28,0,.02,0,.03,0,.05,0,.03.02.06.03.09,0,0,0,.02,0,.03,0,.03.02.05.04.08,0,0,0,.02.01.03,0,0,0,0,0,0,0,0,0,0,0,0,0,.02.02.03.03.05,0,.02.02.03.04.05.01.01.02.03.04.05h0s.02.03.04.05h0s.02.03.03.04h0s0,0,.01.01c.01,0,.03.02.04.03.01,0,.03.02.04.03,0,0,0,0,0,0,.02,0,.03.02.05.03,0,0,.02,0,.03.01.02,0,.03.02.05.02,0,0,.02,0,.03.01s.02,0,.03,0c.05.02.1.03.15.04,0,0,.02,0,.03,0h0s.03,0,.05,0c.03,0,.06,0,.09,0h7.78l3.1,5.36H5.15c-.33,0-.63.17-.79.46L.21,22.33c-.17.28-.17.63,0,.92s.47.46.79.46h24.92c.5,0,.92-.41.92-.92s-.41-.9-.92-.9h0Z"/>
  </g>
</svg>